<?xml version="1.0" encoding="utf-8"?>
<!-- Generator: Adobe Illustrator 19.2.1, SVG Export Plug-In . SVG Version: 6.00 Build 0)  -->
<svg version="1.1" id="Layer_1" xmlns="http://www.w3.org/2000/svg" xmlns:xlink="http://www.w3.org/1999/xlink" x="0px" y="0px"
	 viewBox="0 0 1400 980" style="enable-background:new 0 0 1400 980;" xml:space="preserve">
<style type="text/css">
	.st0{fill:none;stroke:#231F20;stroke-width:38;stroke-linecap:round;stroke-linejoin:round;stroke-miterlimit:10;}
	.st1{fill:#39B54A;}
	.st2{clip-path:url(#SVGID_2_);}
	.st3{fill:#FFFFFF;}
	.st4{fill:#BE1E2D;}
	.st5{fill:#BCBEC0;}
	.st6{fill:#2D963E;}
	.st7{fill:#9C1726;}
	.st8{fill:#6D6E71;}
	.st9{fill:#58595B;}
</style>
<g>
	<g>
		<g>
			<path class="st1" d="M220.8,309.2c-6,0-11.8-2.4-16-6.6L149,246.9c-8.9-8.9-8.9-23.2,0-32.1c8.9-8.9,23.2-8.9,32.1,0l39.7,39.7
				l99.7-99.7c8.9-8.9,23.2-8.9,32.1,0c8.9,8.9,8.9,23.2,0,32.1L236.8,302.6C232.6,306.8,226.8,309.2,220.8,309.2z"/>
		</g>
		<g>
			<g>
				<path class="st3" d="M246.1,243.9c-0.8,0-1.5-0.3-2.1-0.9c-1.2-1.2-1.2-3.1,0-4.2l80.3-80.3c3.3-3.3,7.6-5.1,12.2-5.1
					c1.6,0,3,1.3,3,3s-1.3,3-3,3c-3,0-5.9,1.2-8,3.3l-80.3,80.3C247.6,243.6,246.8,243.9,246.1,243.9z"/>
			</g>
			<g>
				<path class="st3" d="M229.4,260.6c-0.8,0-1.5-0.3-2.1-0.9c-1.2-1.2-1.2-3.1,0-4.2l5-5c1.2-1.2,3.1-1.2,4.2,0
					c1.2,1.2,1.2,3.1,0,4.2l-5,5C231,260.3,230.2,260.6,229.4,260.6z"/>
			</g>
			<g>
				<path class="st3" d="M154.9,243.9c-0.8,0-1.5-0.3-2.1-0.9c-3.3-3.3-5.1-7.6-5.1-12.2c0-4.6,1.8-9,5.1-12.2
					c3.3-3.3,7.6-5.1,12.2-5.1c1.6,0,3,1.3,3,3s-1.3,3-3,3c-3,0-5.9,1.2-8,3.3c-2.1,2.1-3.3,5-3.3,8s1.2,5.9,3.3,8
					c1.2,1.2,1.2,3.1,0,4.2C156.4,243.6,155.7,243.9,154.9,243.9z"/>
			</g>
		</g>
	</g>
	<g>
		<path class="st4" d="M612,224.8l45.7-45.7c8.9-8.9,8.9-23.2,0-32.1c-8.9-8.9-23.2-8.9-32.1,0l-45.7,45.7L534.2,147
			c-8.9-8.9-23.2-8.9-32.1,0c-8.9,8.9-8.9,23.2,0,32.1l45.7,45.7l-45.7,45.7c-8.9,8.9-8.9,23.2,0,32.1c4.4,4.4,10.2,6.6,16,6.6
			s11.6-2.2,16-6.6l45.7-45.7l45.7,45.7c4.4,4.4,10.2,6.6,16,6.6c5.8,0,11.6-2.2,16-6.6c8.9-8.9,8.9-23.2,0-32.1L612,224.8z"/>
		<g>
			<g>
				<path class="st3" d="M601.2,186.2c-0.8,0-1.5-0.3-2.1-0.9c-1.2-1.2-1.2-3.1,0-4.2l30.3-30.3c3.3-3.3,7.6-5.1,12.2-5.1
					s9,1.8,12.2,5.1c1.2,1.2,1.2,3.1,0,4.2c-1.2,1.2-3.1,1.2-4.2,0c-2.1-2.1-5-3.3-8-3.3s-5.9,1.2-8,3.3l-30.3,30.3
					C602.8,185.9,602,186.2,601.2,186.2z"/>
			</g>
			<g>
				<path class="st3" d="M587.4,200c-0.8,0-1.5-0.3-2.1-0.9c-1.2-1.2-1.2-3.1,0-4.2l6.6-6.6c1.2-1.2,3.1-1.2,4.2,0
					c1.2,1.2,1.2,3.1,0,4.2l-6.6,6.6C588.9,199.7,588.2,200,587.4,200z"/>
			</g>
			<g>
				<path class="st3" d="M508,176.2c-0.8,0-1.5-0.3-2.1-0.9c-3.3-3.3-5.1-7.6-5.1-12.2s1.8-9,5.1-12.2c3.3-3.3,7.6-5.1,12.2-5.1
					s9,1.8,12.2,5.1c1.2,1.2,1.2,3.1,0,4.2c-1.2,1.2-3.1,1.2-4.2,0c-2.1-2.1-5-3.3-8-3.3s-5.9,1.2-8,3.3c-2.1,2.1-3.3,5-3.3,8
					s1.2,5.9,3.3,8c1.2,1.2,1.2,3.1,0,4.2C509.5,175.9,508.8,176.2,508,176.2z"/>
			</g>
			<g>
				<path class="st3" d="M535.2,252.2c-0.8,0-1.5-0.3-2.1-0.9c-1.2-1.2-1.2-3.1,0-4.2l7.4-7.4c1.2-1.2,3.1-1.2,4.2,0
					c1.2,1.2,1.2,3.1,0,4.2l-7.4,7.4C536.8,251.9,536,252.2,535.2,252.2z"/>
			</g>
			<g>
				<path class="st3" d="M508,299.7c-0.8,0-1.5-0.3-2.1-0.9c-3.3-3.3-5.1-7.6-5.1-12.2c0-4.6,1.8-9,5.1-12.2l18.8-18.8
					c1.2-1.2,3.1-1.2,4.2,0c1.2,1.2,1.2,3.1,0,4.2l-18.8,18.8c-4.4,4.4-4.4,11.6,0,16c1.2,1.2,1.2,3.1,0,4.2
					C509.5,299.4,508.8,299.7,508,299.7z"/>
			</g>
		</g>
	</g>
	<g>
		<g>
			<g>
				<path class="st5" d="M229.6,574.2c-4.3,0-8.3-1.6-11.3-4.5l-39.3-37.5c-6.3-6-6.3-15.6,0-21.6c6.3-6,16.4-6,22.7,0l28,26.7
					l70.4-67c6.3-6,16.4-6,22.7,0c6.3,6,6.3,15.6,0,21.6l-81.7,77.8C237.9,572.6,233.8,574.2,229.6,574.2z"/>
			</g>
		</g>
		<g>
			<path class="st5" d="M254.5,618.2c-58.4,0-105.9-45.2-105.9-100.8c0-55.6,47.5-100.8,105.9-100.8s105.9,45.2,105.9,100.8
				C360.4,573,312.9,618.2,254.5,618.2z M254.5,429.5c-50.9,0-92.4,39.5-92.4,87.9c0,48.5,41.4,87.9,92.4,87.9s92.4-39.5,92.4-87.9
				C346.9,468.9,305.5,429.5,254.5,429.5z"/>
		</g>
		<g>
			<g>
				<path class="st1" d="M229.6,572c-4.3,0-8.3-1.7-11.3-4.7l-39.3-39.3c-6.3-6.3-6.3-16.4,0-22.7c6.3-6.3,16.4-6.3,22.7,0l28,28
					l70.4-70.4c6.3-6.3,16.4-6.3,22.7,0c6.3,6.3,6.3,16.4,0,22.7l-81.7,81.7C237.9,570.3,233.8,572,229.6,572z"/>
			</g>
		</g>
		<g>
			<path class="st1" d="M254.5,618.2c-58.4,0-105.9-47.5-105.9-105.9c0-58.4,47.5-105.9,105.9-105.9s105.9,47.5,105.9,105.9
				C360.4,570.7,312.9,618.2,254.5,618.2z M254.5,419.9c-50.9,0-92.4,41.4-92.4,92.4c0,50.9,41.4,92.4,92.4,92.4
				s92.4-41.4,92.4-92.4C346.9,461.4,305.5,419.9,254.5,419.9z"/>
		</g>
	</g>
	<g>
		<g>
			<path class="st5" d="M602.6,517.4l32.3-30.7c6.3-6,6.3-15.6,0-21.6c-6.3-6-16.4-6-22.7,0l-32.3,30.7l-32.3-30.7
				c-6.3-6-16.4-6-22.7,0c-6.3,6-6.3,15.6,0,21.6l32.3,30.7L525,548.2c-6.3,6-6.3,15.6,0,21.6c3.1,3,7.2,4.5,11.3,4.5
				s8.2-1.5,11.3-4.5l32.3-30.7l32.3,30.7c3.1,3,7.2,4.5,11.3,4.5s8.2-1.5,11.3-4.5c6.3-6,6.3-15.6,0-21.6L602.6,517.4z"/>
		</g>
		<g>
			<path class="st5" d="M579.9,618.2C521.5,618.2,474,573,474,517.4c0-55.6,47.5-100.8,105.9-100.8c58.4,0,105.9,45.2,105.9,100.8
				C685.8,573,638.3,618.2,579.9,618.2z M579.9,429.5c-50.9,0-92.4,39.5-92.4,87.9c0,48.5,41.4,87.9,92.4,87.9
				c50.9,0,92.4-39.5,92.4-87.9C672.3,468.9,630.8,429.5,579.9,429.5z"/>
		</g>
		<g>
			<path class="st4" d="M602.6,512.3l32.3-32.3c6.3-6.3,6.3-16.4,0-22.7c-6.3-6.3-16.4-6.3-22.7,0l-32.3,32.3l-32.3-32.3
				c-6.3-6.3-16.4-6.3-22.7,0c-6.3,6.3-6.3,16.4,0,22.7l32.3,32.3L525,544.6c-6.3,6.3-6.3,16.4,0,22.7c3.1,3.1,7.2,4.7,11.3,4.7
				s8.2-1.6,11.3-4.7l32.3-32.3l32.3,32.3c3.1,3.1,7.2,4.7,11.3,4.7s8.2-1.6,11.3-4.7c6.3-6.3,6.3-16.4,0-22.7L602.6,512.3z"/>
		</g>
		<g>
			<path class="st4" d="M579.9,618.2c-58.4,0-105.9-47.5-105.9-105.9c0-58.4,47.5-105.9,105.9-105.9c58.4,0,105.9,47.5,105.9,105.9
				C685.8,570.7,638.3,618.2,579.9,618.2z M579.9,419.9c-50.9,0-92.4,41.4-92.4,92.4c0,50.9,41.4,92.4,92.4,92.4
				c50.9,0,92.4-41.4,92.4-92.4C672.3,461.4,630.8,419.9,579.9,419.9z"/>
		</g>
	</g>
	<g>
		<path class="st1" d="M203.9,725.8c-2.1-2.4-4.9-3.6-8.1-3.6c-4.4,0-8.1,2-10.4,5.7l-22.6,35.6l-22.2-35.2l-0.1-0.1
			c-1.2-1.8-2.5-3.2-3.9-4.2c-1.8-1.3-4-1.9-6.5-1.9c-3.1,0-6,1.1-8.3,3.2c-2.5,2.2-3.8,5.2-3.8,8.5c0,2.3,0.8,4.7,2.2,7l30.1,46.8
			V813c0,3.3,1.2,6.3,3.5,8.5c2.3,2.3,5.2,3.5,8.4,3.5c3.3,0,6.3-1.2,8.5-3.5c2.3-2.3,3.5-5.2,3.5-8.5v-25.3l30.3-46.8l0.1-0.1
			c1.4-2.2,2.1-4.6,2.1-7C206.8,730.8,205.8,728,203.9,725.8L203.9,725.8z"/>
		<path class="st1" d="M283.1,805c-2.2-2-5.1-3.1-8.4-3.1h-40.6v-17.1h27.4c3.2,0,6.1-1.1,8.3-3.2c2.4-2.2,3.6-5.1,3.6-8.4
			s-1.2-6.2-3.6-8.4c-2.2-2.1-5.1-3.2-8.3-3.2h-27.4v-16.3h40.6c4.2,0,6.9-1.7,8.4-3.1c2.3-2.2,3.5-5,3.5-8.4c0-3.3-1.2-6.3-3.5-8.5
			c-2.2-2.1-5.1-3.2-8.5-3.2h-52.6c-3.3,0-6.2,1.2-8.5,3.4c-2.3,2.3-3.6,5.3-3.6,8.7V813c0,3.3,1.2,6.3,3.5,8.5
			c2.3,2.3,5.2,3.5,8.5,3.5h52.6c3.3,0,6.3-1.1,8.5-3.3c2.3-2.2,3.5-5.1,3.5-8.4C286.6,810.1,285.4,807.2,283.1,805L283.1,805z"/>
		<path class="st1" d="M357.8,771c-6.1-5.6-14.5-8.9-25.1-10c-9.3-1-12.9-2.9-14.2-4c-1.9-1.6-2.7-3.3-2.7-5.5
			c0-2.3,0.8-3.7,2.7-4.9c2.7-1.7,6.4-2.5,11.1-2.5c3.7,0,6.7,0.6,8.9,1.9c2.2,1.3,4.1,3.2,5.7,5.8c1.1,1.9,2.6,3.5,4.5,4.6
			c1.9,1.1,4,1.7,6.3,1.7c2.3,0,4.4-0.6,6.2-1.8l0.2-0.1c3.2-2.2,4.9-5.4,4.9-9.1c0-2.5-0.8-5-2.3-7.4c-3.7-5.8-8.3-10.4-13.7-13.6
			l0,0c-5.5-3.3-12.2-4.9-19.9-4.9c-6.8,0-13.1,1.1-18.7,3.3c-5.9,2.3-10.7,5.7-14.2,10.2c-3.7,4.7-5.5,10.2-5.5,16.6
			c0,8.9,3.5,16.3,10.4,22.2c6.4,5.5,15.2,8.8,26,9.8c5.6,0.6,9.7,2,12.1,4.2c2.2,2,3.2,4.2,3.2,6.9c0,2.6-1,4.4-3.4,6
			c-3.1,2-6.8,3-11.5,3c-4,0-7.6-0.8-10.9-2.5c-2.8-1.4-4.7-3.1-5.5-4.8c-1-2.3-2.6-4.1-4.7-5.5c-2.1-1.4-4.4-2.1-6.8-2.1
			c-1,0-1.9,0.1-2.6,0.3c-2.6,0.6-4.7,1.7-6.4,3.5c-1.9,2-2.9,4.5-2.9,7.2c0,1.4,0.3,3,1.1,4.7c2.9,6.8,8,12.2,15.4,16.3
			c7,3.9,14.9,5.9,23.4,5.9c6.5,0,12.6-1.1,18.3-3.4c6-2.4,10.9-6.1,14.6-10.9c3.8-5,5.8-11.1,5.8-18
			C367.4,784.6,364.2,776.8,357.8,771z"/>
	</g>
	<g>
		<path class="st4" d="M553.4,722.2c-3.3,0-6.2,1.2-8.5,3.4l0,0c-2.3,2.3-3.6,5.3-3.6,8.7v45.7l-39.9-53.1l-0.3-0.4
			c-1.1-1.2-2.4-2.2-3.9-3c-1.7-0.8-3.5-1.3-5.2-1.3c-3.3,0-6.2,1.2-8.5,3.4c-2.3,2.3-3.4,5.2-3.4,8.6V813c0,3.4,1.2,6.4,3.4,8.6
			c2.3,2.3,5.2,3.4,8.5,3.4c3.4,0,6.4-1.2,8.7-3.6c2.2-2.3,3.4-5.2,3.4-8.5v-45.6l39.9,53c1.1,1.6,2.8,2.9,4.7,3.7
			c1.6,0.6,3.2,0.9,4.8,0.9c3.3,0,6.2-1.2,8.5-3.4c2.3-2.3,3.4-5.2,3.4-8.6v-78.8c0-3.4-1.2-6.4-3.4-8.6
			C559.6,723.4,556.7,722.2,553.4,722.2z"/>
		<path class="st4" d="M670.2,746.6c-4.4-8-10.7-14.4-18.7-18.8h0c-7.9-4.5-16.9-6.7-26.9-6.7c-10,0-19.1,2.3-27,6.7
			c-8,4.5-14.3,10.8-18.7,18.9c-4.4,7.9-6.6,17-6.6,27c0,10,2.2,19.1,6.6,27c4.4,8.1,10.7,14.4,18.7,18.9c7.9,4.5,17,6.7,27,6.7
			c10,0,19.1-2.3,26.9-6.7c7.9-4.5,14.2-10.9,18.6-18.9c4.4-8,6.6-17.1,6.6-27C676.8,763.6,674.6,754.5,670.2,746.6z M649.5,788.9
			c-2.4,4.5-5.8,8-10.1,10.6c-4.4,2.6-9.2,3.9-14.7,3.9c-5.5,0-10.4-1.3-14.7-3.9c-4.4-2.6-7.7-6.1-10.1-10.6
			c-2.5-4.6-3.7-9.6-3.7-15.3s1.2-10.7,3.7-15.3c2.4-4.5,5.7-7.9,10.1-10.5c4.3-2.6,9.2-3.8,14.8-3.8s10.5,1.2,14.8,3.8
			c4.3,2.6,7.6,6,10.1,10.5c2.5,4.6,3.7,9.6,3.7,15.3C653.2,779.3,652,784.3,649.5,788.9z"/>
	</g>
	<g>
		<path class="st1" d="M960.9,140.3h-135c-14.6,0-26.5,11.9-26.5,26.5v135c0,14.6,11.9,26.5,26.5,26.5h135
			c14.6,0,26.5-11.9,26.5-26.5v-135C987.4,152.2,975.5,140.3,960.9,140.3z"/>
		<g>
			<g>
				<path class="st3" d="M960.9,149.3h-18c-1.1,0-2-0.9-2-2s0.9-2,2-2h18c1.1,0,2,0.9,2,2S962,149.3,960.9,149.3z"/>
			</g>
			<g>
				<path class="st3" d="M806.4,303.8c-1.1,0-2-0.9-2-2v-135c0-11.9,9.6-21.5,21.5-21.5h93.8c1.1,0,2,0.9,2,2s-0.9,2-2,2h-93.8
					c-9.6,0-17.5,7.9-17.5,17.5v135C808.4,302.9,807.5,303.8,806.4,303.8z"/>
			</g>
		</g>
		<g>
			<path class="st6" d="M876,297c-4,0-7.8-1.6-10.7-4.4l-37.1-37.1c-5.9-5.9-5.9-15.5,0-21.4c5.9-5.9,15.5-5.9,21.4,0l26.4,26.4
				l66.3-66.3c5.9-5.9,15.5-5.9,21.4,0s5.9,15.5,0,21.4l-77,77C883.8,295.4,880,297,876,297z"/>
		</g>
		<g>
			<path class="st3" d="M873.5,289c-4,0-7.8-1.6-10.7-4.4l-37.1-37.1c-5.9-5.9-5.9-15.5,0-21.4c5.9-5.9,15.5-5.9,21.4,0l26.4,26.4
				l66.3-66.3c5.9-5.9,15.5-5.9,21.4,0c5.9,5.9,5.9,15.5,0,21.4l-77,77C881.3,287.4,877.5,289,873.5,289z"/>
		</g>
	</g>
	<g>
		<path class="st4" d="M1224.9,140.3h-135c-14.6,0-26.5,11.9-26.5,26.5v135c0,14.6,11.9,26.5,26.5,26.5h135
			c14.6,0,26.5-11.9,26.5-26.5v-135C1251.4,152.2,1239.5,140.3,1224.9,140.3z"/>
		<g>
			<g>
				<path class="st3" d="M1224.9,149.3h-18c-1.1,0-2-0.9-2-2s0.9-2,2-2h18c1.1,0,2,0.9,2,2S1226,149.3,1224.9,149.3z"/>
			</g>
			<g>
				<path class="st3" d="M1070.4,303.8c-1.1,0-2-0.9-2-2v-135c0-11.9,9.6-21.5,21.5-21.5h93.8c1.1,0,2,0.9,2,2s-0.9,2-2,2h-93.8
					c-9.6,0-17.5,7.9-17.5,17.5v135C1072.4,302.9,1071.5,303.8,1070.4,303.8z"/>
			</g>
		</g>
		<g>
			<path class="st7" d="M1180.6,242.6l33.1-33.1c6.4-6.4,6.4-16.9,0-23.3c-6.4-6.4-16.9-6.4-23.3,0l-33.1,33.1l-33.1-33.1
				c-6.4-6.4-16.9-6.4-23.3,0c-6.4,6.4-6.4,16.9,0,23.3l33.1,33.1l-33.1,33.1c-6.4,6.4-6.4,16.9,0,23.3c3.2,3.2,7.4,4.8,11.6,4.8
				s8.4-1.6,11.6-4.8l33.1-33.1l33.1,33.1c3.2,3.2,7.4,4.8,11.6,4.8s8.4-1.6,11.6-4.8c6.4-6.4,6.4-16.9,0-23.3L1180.6,242.6z"/>
			<path class="st3" d="M1180.6,234.7l33.1-33.1c6.4-6.4,6.4-16.9,0-23.3c-6.4-6.4-16.9-6.4-23.3,0l-33.1,33.1l-33.1-33.1
				c-6.4-6.4-16.9-6.4-23.3,0s-6.4,16.9,0,23.3l33.1,33.1l-33.1,33.1c-6.4,6.4-6.4,16.9,0,23.3c3.2,3.2,7.4,4.8,11.6,4.8
				s8.4-1.6,11.6-4.8l33.1-33.1l33.1,33.1c3.2,3.2,7.4,4.8,11.6,4.8s8.4-1.6,11.6-4.8c6.4-6.4,6.4-16.9,0-23.3L1180.6,234.7z"/>
		</g>
	</g>
	<g>
		<polygon class="st1" points="884,638.1 893.8,651 906,640.4 912.9,655.1 927.1,647.2 930.7,663.1 946.2,658.3 946.5,674.5 
			962.7,673.1 959.6,689.1 975.7,691 969.4,706 984.7,711.3 975.4,724.6 989.3,732.9 977.4,744 989.3,755.1 975.4,763.4 
			984.7,776.7 969.4,782 975.7,796.9 959.6,798.9 962.7,814.8 946.5,813.4 946.2,829.7 930.7,824.9 927.1,840.7 912.9,832.9 
			906,847.6 893.8,836.9 884,849.9 874.2,836.9 862,847.6 855.1,832.9 840.9,840.7 837.3,824.9 821.8,829.7 821.5,813.4 
			805.3,814.8 808.4,798.9 792.3,796.9 798.6,782 783.3,776.7 792.6,763.4 778.7,755.1 790.6,744 778.7,732.9 792.6,724.6 
			783.3,711.3 798.6,706 792.3,691 808.4,689.1 805.3,673.1 821.5,674.5 821.8,658.3 837.3,663.1 840.9,647.2 855.1,655.1 
			862,640.4 874.2,651 		"/>
		<g>
			<path class="st6" d="M863.5,804.5c-3.8,0-7.5-1.5-10.2-4.2l-35.5-35.5c-5.6-5.6-5.6-14.8,0-20.5c5.6-5.6,14.8-5.6,20.5,0
				l25.3,25.3l63.5-63.5c5.6-5.6,14.8-5.6,20.5,0s5.6,14.8,0,20.5l-73.7,73.7C871.1,803,867.4,804.5,863.5,804.5z"/>
		</g>
		<g>
			<path class="st3" d="M861.1,796.9c-3.8,0-7.5-1.5-10.2-4.2l-35.5-35.5c-5.6-5.6-5.6-14.8,0-20.5c5.6-5.6,14.8-5.6,20.5,0
				l25.3,25.3l63.5-63.5c5.6-5.6,14.8-5.6,20.5,0s5.6,14.8,0,20.5l-73.7,73.7C868.6,795.3,865,796.9,861.1,796.9z"/>
		</g>
	</g>
	<g>
		<polygon class="st4" points="1157.4,638.1 1167.1,651 1179.4,640.4 1186.2,655.1 1200.4,647.2 1204.1,663.1 1219.6,658.3 
			1219.9,674.5 1236.1,673.1 1233,689.1 1249.1,691 1242.7,706 1258.1,711.3 1248.8,724.6 1262.7,732.9 1250.8,744 1262.7,755.1 
			1248.8,763.4 1258.1,776.7 1242.7,782 1249.1,796.9 1233,798.9 1236.1,814.8 1219.9,813.4 1219.6,829.7 1204.1,824.9 
			1200.4,840.7 1186.2,832.9 1179.4,847.6 1167.1,836.9 1157.4,849.9 1147.6,836.9 1135.3,847.6 1128.5,832.9 1114.3,840.7 
			1110.6,824.9 1095.1,829.7 1094.8,813.4 1078.7,814.8 1081.8,798.9 1065.7,796.9 1072,782 1056.7,776.7 1066,763.4 1052.1,755.1 
			1063.9,744 1052.1,732.9 1066,724.6 1056.7,711.3 1072,706 1065.7,691 1081.8,689.1 1078.7,673.1 1094.8,674.5 1095.1,658.3 
			1110.6,663.1 1114.3,647.2 1128.5,655.1 1135.3,640.4 1147.6,651 		"/>
		<g>
			<path class="st7" d="M1177.8,750.9l29.1-29.1c5.6-5.6,5.6-14.8,0-20.5c-5.6-5.6-14.8-5.6-20.5,0l-29.1,29.1l-29.1-29.1
				c-5.6-5.6-14.8-5.6-20.5,0c-5.6,5.6-5.6,14.8,0,20.5l29.1,29.1l-29.1,29.1c-5.6,5.6-5.6,14.8,0,20.5c2.8,2.8,6.5,4.2,10.2,4.2
				s7.4-1.4,10.2-4.2l29.1-29.1l29.1,29.1c2.8,2.8,6.5,4.2,10.2,4.2c3.7,0,7.4-1.4,10.2-4.2c5.6-5.6,5.6-14.8,0-20.5L1177.8,750.9z"
				/>
			<path class="st3" d="M1177.8,744l29.1-29.1c5.6-5.6,5.6-14.8,0-20.5c-5.6-5.6-14.8-5.6-20.5,0l-29.1,29.1l-29.1-29.1
				c-5.6-5.6-14.8-5.6-20.5,0c-5.6,5.6-5.6,14.8,0,20.5l29.1,29.1l-29.1,29.1c-5.6,5.6-5.6,14.8,0,20.5c2.8,2.8,6.5,4.2,10.2,4.2
				s7.4-1.4,10.2-4.2l29.1-29.1l29.1,29.1c2.8,2.8,6.5,4.2,10.2,4.2c3.7,0,7.4-1.4,10.2-4.2c5.6-5.6,5.6-14.8,0-20.5L1177.8,744z"/>
		</g>
	</g>
	<g>
		<path class="st1" d="M929.6,475.4v84.4h38.4v-84.4H929.6z M940.3,555.6c-3.1,0-5.7-2.5-5.7-5.7s2.5-5.7,5.7-5.7s5.7,2.5,5.7,5.7
			S943.4,555.6,940.3,555.6z"/>
		<path class="st1" d="M895.7,465.9c-14.9-9-28.1-20.8-38.8-34.6l-21.1-27.2c-2.4-3.1-7-3.3-9.6-0.4c-4.2,4.7-8.3,13.4-2.5,27.5
			c6.4,15.5,15.1,28.8,15.1,28.8h-40.4c-2,0-3.6,1.6-3.6,3.6v17.3c0,1.7,1.3,3,3,3v20.9c0,1.7,1.3,3,3,3v20.9c0,1.7,1.3,3,3,3h0.1
			V552c0,2,1.6,3.6,3.6,3.6h79.8l36-5v-68L895.7,465.9z"/>
		<polygon class="st6" points="902.4,553.6 923.4,550.6 923.4,482.6 917.6,479.1 		"/>
	</g>
	<g>
		<path class="st4" d="M1180.2,456.4v84.4h38.4v-84.4H1180.2z M1190.8,536.6c-3.1,0-5.7-2.5-5.7-5.7s2.5-5.7,5.7-5.7
			c3.1,0,5.7,2.5,5.7,5.7S1194,536.6,1190.8,536.6z"/>
		<path class="st4" d="M1146.2,546.2c-14.9,9-28.1,20.8-38.8,34.6l-21.1,27.2c-2.4,3.1-7,3.3-9.6,0.4c-4.2-4.7-8.3-13.4-2.5-27.5
			c6.4-15.5,15.1-28.8,15.1-28.8H1049c-2,0-3.6-1.6-3.6-3.6v-17.3c0-1.7,1.3-3,3-3v-20.9c0-1.7,1.3-3,3-3v-20.9c0-1.7,1.3-3,3-3h0.1
			V460c0-2,1.6-3.6,3.6-3.6h79.8l36,5v68L1146.2,546.2z"/>
		<polygon class="st7" points="1151.6,543 1173.9,529.4 1173.9,461.4 1168.3,460.6 		"/>
	</g>
</g>
</svg>
